<svg xmlns="http://www.w3.org/2000/svg" width="960" height="520" viewBox="0 0 960 520" role="img" aria-label="Without Understudy the verification loop runs on your time; with Understudy the block reason feeds back into the model's turn and you review evidence, not claims.">
  <defs>
    <marker id="a" viewBox="0 0 10 10" refX="9" refY="5" markerWidth="7" markerHeight="7" orient="auto-start-reverse">
      <path d="M0 0 L10 5 L0 10 z" fill="#8b949e"/>
    </marker>
    <marker id="ar" viewBox="0 0 10 10" refX="9" refY="5" markerWidth="7" markerHeight="7" orient="auto-start-reverse">
      <path d="M0 0 L10 5 L0 10 z" fill="#f85149"/>
    </marker>
    <marker id="ag" viewBox="0 0 10 10" refX="9" refY="5" markerWidth="7" markerHeight="7" orient="auto-start-reverse">
      <path d="M0 0 L10 5 L0 10 z" fill="#d29922"/>
    </marker>
  </defs>
  <style>
    text { font-family: ui-sans-serif, system-ui, -apple-system, "Segoe UI", sans-serif; fill: #e6edf3; }
    .h { fill: #8b949e; font-size: 12px; letter-spacing: 2px; font-weight: 600; }
    .b { fill: #161b22; stroke: #30363d; stroke-width: 1.5; rx: 8; }
    .t { font-size: 15px; text-anchor: middle; }
    .m { fill: #8b949e; font-size: 12px; text-anchor: middle; }
    .s { fill: #8b949e; font-size: 11px; text-anchor: middle; }
    .cap { fill: #8b949e; font-size: 13px; font-style: italic; }
    .red { fill: #f85149; }
    .grn { fill: #3fb950; }
    .amb { fill: #d29922; }
    .mono { font-family: ui-monospace, SFMono-Regular, Menlo, Consolas, monospace; font-size: 13px; text-anchor: middle; }
    .flow { stroke: #8b949e; stroke-width: 1.5; fill: none; }
  </style>

  <rect x="0" y="0" width="960" height="520" rx="12" fill="#0d1117"/>

  <!-- ══ Lane 1: bare model ══ -->
  <text class="h" x="40" y="52">WITHOUT — ANY MODEL, BARE</text>

  <rect class="b" x="40" y="78" width="80" height="46" rx="8"/>
  <text class="t" x="80" y="106">you</text>
  <line class="flow" x1="122" y1="101" x2="164" y2="101" marker-end="url(#a)"/>

  <rect class="b" x="168" y="78" width="96" height="46" rx="8"/>
  <text class="t" x="216" y="106">model</text>
  <line class="flow" x1="266" y1="101" x2="308" y2="101" marker-end="url(#a)"/>

  <rect class="b" x="312" y="72" width="252" height="58" rx="8" stroke-dasharray="5 4" stroke="#f85149"/>
  <text class="mono red" x="438" y="96">“Fixed — should work now!”</text>
  <text class="m" x="438" y="116">nothing ever ran</text>
  <line class="flow" x1="566" y1="101" x2="608" y2="101" marker-end="url(#a)"/>

  <rect class="b" x="612" y="78" width="128" height="46" rx="8"/>
  <text class="t" x="676" y="106">you test it</text>

  <text class="red" x="762" y="106" font-size="14">broken.</text>

  <path class="flow" d="M 676 126 C 676 178, 80 178, 80 126" stroke="#f85149" stroke-dasharray="5 4" marker-end="url(#ar)"/>
  <text class="m red" x="378" y="164">re-prompt, re-explain, re-review — ×N</text>

  <text class="cap" x="40" y="216">the verification loop runs on your time</text>

  <line x1="40" y1="240" x2="920" y2="240" stroke="#21262d" stroke-width="1.5"/>

  <!-- ══ Lane 2: gated ══ -->
  <text class="h" x="40" y="274">WITH UNDERSTUDY — SAME MODEL, GATED</text>

  <rect class="b" x="40" y="296" width="80" height="46" rx="8"/>
  <text class="t" x="80" y="324">you</text>
  <line class="flow" x1="122" y1="319" x2="164" y2="319" marker-end="url(#a)"/>

  <rect class="b" x="168" y="296" width="96" height="46" rx="8"/>
  <text class="t" x="216" y="324">model</text>
  <line class="flow" x1="266" y1="319" x2="308" y2="319" marker-end="url(#a)"/>

  <rect class="b" x="312" y="281" width="150" height="76" rx="8" stroke="#d29922"/>
  <text class="t amb" x="387" y="303" font-weight="600">STOP GATE</text>
  <text class="s" x="387" y="322">did a related run follow the edit?</text>
  <text class="s" x="387" y="338">13 slop checks · no fake substitutes</text>

  <path class="flow" d="M 366 279 C 336 246, 254 246, 222 292" stroke="#d29922" stroke-dasharray="5 4" marker-end="url(#ag)"/>
  <text class="m amb" x="292" y="252">blocked — the reason lands back in its turn</text>

  <line class="flow" x1="464" y1="319" x2="500" y2="319" marker-end="url(#a)"/>

  <rect class="b" x="504" y="290" width="264" height="58" rx="8" stroke="#3fb950"/>
  <text class="mono grn" x="636" y="314">“fixed — 42 passed, 0 failed”</text>
  <text class="m" x="636" y="334">evidence attached, not asserted</text>
  <line class="flow" x1="770" y1="319" x2="806" y2="319" marker-end="url(#a)"/>

  <rect class="b" x="810" y="296" width="104" height="46" rx="8"/>
  <text class="t" x="862" y="318">you review</text>
  <text class="m" x="862" y="334">once</text>

  <text class="cap" x="40" y="394">the loop runs inside the model’s turn — it runs the code, proves the claim, rewrites the ending, then gets to stop</text>

  <!-- ══ Footer chips ══ -->
  <rect class="b" x="40" y="432" width="262" height="38" rx="19"/>
  <text class="m" x="171" y="456">gates cost 0 context tokens</text>
  <rect class="b" x="322" y="432" width="280" height="38" rx="19"/>
  <text class="m" x="462" y="456">‘ls’ doesn’t count as verification</text>
  <rect class="b" x="622" y="432" width="238" height="38" rx="19"/>
  <text class="m" x="741" y="456">same model, higher floor</text>
</svg>
